<svg data-v-423bf9ae="" xmlns="http://www.w3.org/2000/svg" viewBox="0 0 493 90" class="iconLeft"><!----><!----><!----><g data-v-423bf9ae="" id="4bdc4e6c-f317-4a34-a297-8518678bb912" fill="white" transform="matrix(5.323868912170654,0,0,5.323868912170654,104.03727022367434,6.055901064239599)"><path d="M3.15 7.84L7.28 7.84L7.48 6.72L3.35 6.72L3.84 3.92L8.25 3.92L8.44 2.80L2.84 2.80L1.12 12.60L6.72 12.60L6.92 11.48L2.51 11.48ZM15.51 1.68L14.52 7.27C14.17 6.44 13.51 6.02 12.54 6.02C11.55 6.02 10.65 6.40 9.87 7.16C9.09 7.92 8.69 8.90 8.69 10.09C8.69 10.91 8.94 11.55 9.44 12.03C9.93 12.50 10.57 12.74 11.35 12.74C12.30 12.74 13.10 12.32 13.78 11.49L13.58 12.60L14.70 12.60L16.63 1.68ZM9.88 9.88C9.88 9.09 10.15 8.42 10.69 7.88C11.23 7.34 11.83 7.07 12.50 7.07C12.97 7.07 13.37 7.22 13.70 7.52C14.03 7.82 14.20 8.25 14.20 8.81C14.20 9.64 13.92 10.32 13.36 10.87C12.80 11.42 12.19 11.69 11.54 11.69C11.05 11.69 10.65 11.54 10.35 11.24C10.04 10.94 9.88 10.49 9.88 9.88ZM21.28 10.19C21.18 10.63 20.95 10.99 20.60 11.27C20.25 11.55 19.84 11.69 19.38 11.69C18.98 11.69 18.69 11.62 18.50 11.47C18.31 11.33 18.21 11.08 18.21 10.72C18.21 10.66 18.24 10.44 18.30 10.08L18.98 6.16L17.86 6.16L17.15 10.22C17.10 10.50 17.08 10.73 17.08 10.91C17.08 11.50 17.24 11.96 17.56 12.27C17.88 12.58 18.34 12.74 18.91 12.74C19.72 12.74 20.42 12.40 21.01 11.73L20.86 12.60L21.98 12.60L23.11 6.16L21.99 6.16ZM25.12 9.93C25.12 9.08 25.38 8.39 25.89 7.87C26.41 7.35 27.03 7.08 27.75 7.08C28.26 7.08 28.71 7.19 29.09 7.41C29.46 7.62 29.70 7.89 29.79 8.20L30.04 6.85C29.88 6.59 29.60 6.39 29.20 6.24C28.81 6.09 28.39 6.02 27.94 6.02C26.84 6.02 25.90 6.39 25.13 7.13C24.36 7.86 23.97 8.81 23.97 9.97C23.97 10.77 24.23 11.43 24.75 11.96C25.26 12.48 25.93 12.74 26.75 12.74C27.21 12.74 27.66 12.67 28.10 12.52C28.54 12.38 28.89 12.18 29.15 11.91L29.39 10.56C29.18 10.87 28.84 11.13 28.38 11.34C27.91 11.55 27.42 11.65 26.91 11.65C26.34 11.65 25.90 11.48 25.59 11.16C25.27 10.83 25.12 10.42 25.12 9.93ZM36.74 6.16L36.54 7.31C36.37 6.91 36.12 6.59 35.77 6.36C35.42 6.13 35.02 6.02 34.57 6.02C33.57 6.02 32.68 6.40 31.89 7.16C31.11 7.92 30.72 8.90 30.72 10.09C30.72 10.91 30.96 11.55 31.46 12.03C31.95 12.50 32.59 12.74 33.38 12.74C34.32 12.74 35.13 12.32 35.80 11.49L35.60 12.60L36.72 12.60L37.86 6.16ZM31.91 9.88C31.91 9.09 32.17 8.42 32.71 7.88C33.25 7.34 33.85 7.07 34.52 7.07C34.99 7.07 35.39 7.22 35.72 7.52C36.05 7.82 36.22 8.25 36.22 8.81C36.22 9.64 35.94 10.32 35.38 10.87C34.82 11.42 34.21 11.69 33.56 11.69C33.07 11.69 32.68 11.54 32.37 11.24C32.06 10.94 31.91 10.49 31.91 9.88ZM40.35 3.92L39.96 6.16L38.91 6.16L38.72 7.21L39.77 7.21L38.82 12.60L39.94 12.60L40.89 7.21L41.94 7.21L42.13 6.16L41.08 6.16L41.47 3.92ZM47.31 8.71L43.41 8.71C43.56 8.21 43.86 7.80 44.30 7.48C44.73 7.16 45.22 7.00 45.74 7.00C46.18 7.00 46.55 7.13 46.86 7.38C47.18 7.64 47.33 7.99 47.33 8.43C47.33 8.48 47.32 8.58 47.31 8.71ZM43.22 9.66L48.29 9.66C48.38 9.29 48.43 8.91 48.43 8.53C48.43 7.82 48.19 7.22 47.70 6.74C47.22 6.26 46.62 6.02 45.91 6.02C44.92 6.02 44.08 6.33 43.41 6.95C42.73 7.57 42.30 8.38 42.13 9.38C42.08 9.66 42.06 9.90 42.06 10.11C42.06 10.90 42.29 11.54 42.75 12.02C43.21 12.50 43.84 12.74 44.63 12.74C45.41 12.74 46.04 12.60 46.52 12.33C47.01 12.06 47.48 11.65 47.94 11.10L47.10 10.47C46.44 11.28 45.68 11.69 44.81 11.69C43.74 11.69 43.20 11.13 43.20 10.00C43.20 9.85 43.21 9.73 43.22 9.66ZM63.99 5.91L63.91 12.60L65.21 12.60L65.03 2.31L59.65 10.47L56.88 2.31L53.17 12.60L54.50 12.60L56.80 5.92L59.28 12.95ZM71.88 8.71L67.98 8.71C68.13 8.21 68.43 7.80 68.87 7.48C69.30 7.16 69.79 7.00 70.31 7.00C70.75 7.00 71.12 7.13 71.44 7.38C71.75 7.64 71.90 7.99 71.90 8.43C71.90 8.48 71.89 8.58 71.88 8.71ZM67.79 9.66L72.86 9.66C72.95 9.29 73.00 8.91 73.00 8.53C73.00 7.82 72.76 7.22 72.28 6.74C71.79 6.26 71.19 6.02 70.48 6.02C69.49 6.02 68.65 6.33 67.98 6.95C67.30 7.57 66.87 8.38 66.70 9.38C66.65 9.66 66.63 9.90 66.63 10.11C66.63 10.90 66.86 11.54 67.32 12.02C67.78 12.50 68.41 12.74 69.20 12.74C69.98 12.74 70.61 12.60 71.09 12.33C71.58 12.06 72.05 11.65 72.51 11.10L71.67 10.47C71.01 11.28 70.25 11.69 69.38 11.69C68.31 11.69 67.77 11.13 67.77 10.00C67.77 9.85 67.78 9.73 67.79 9.66Z"></path></g><!----><g data-v-423bf9ae="" id="5df8a932-ee3e-4151-aaf6-2f0fadd53340" transform="matrix(2.8125,0,0,2.8125,0,0)" stroke="none" fill="white"><path d="M29.625 1l-3.099 3.172H4.054v23.657h22.472L29.625 31H1V1h28.625M32 0H0v32h32l-5.054-5.172H5.054V5.172h21.893L32 0z"></path><path d="M21.038 10.962v10.076H10.962V10.962h10.076m1-1H9.962v12.076h12.076V9.962z"></path></g><!----></svg>